<svg width="116" height="417" viewBox="0 0 116 417" fill="none" xmlns="http://www.w3.org/2000/svg">
<path d="M53.1424 8.19995C42.7424 27.3999 43.8424 20.9999 42.5424 68.9999C41.9424 92.3999 40.9424 127 40.4424 146C38.1424 227.7 37.4424 251.9 36.9424 276C36.6424 290 36.1424 302.5 35.8424 303.7C35.5424 305.1 33.4424 307 29.6424 309C8.44244 320.3 -3.35756 344.6 0.842439 368.7C4.84244 392.1 22.6424 410.6 45.9424 415.5C58.9424 418.2 70.6424 416.6 83.4424 410.4C104.442 400.1 117.742 375.4 114.542 352.6C111.742 333 102.142 318.6 85.1424 309L78.9424 305.4L78.2424 284C77.9424 272.2 77.1424 242.7 76.5424 218.5C74.7424 145.8 73.4424 98.4999 72.4424 61.1999L71.4424 25.8999L64.9424 12.9999C61.3424 5.79995 58.2424 -3.06243e-05 58.0424 -3.06243e-05C57.7424 -3.06243e-05 55.6424 3.69995 53.1424 8.19995ZM66.6424 342.1C74.2424 346 78.6424 355.8 76.4424 364.1C74.8424 369.9 68.3424 376.4 62.5424 378C48.5424 381.7 34.9424 368.9 38.4424 355.1C41.7424 342 54.5424 336.1 66.6424 342.1Z" fill="black"/>
</svg>
