<svg width="406" height="388" viewBox="0 0 406 388" fill="none" xmlns="http://www.w3.org/2000/svg">
<path d="M215.602 10.2105L253.925 128.158C255.9 134.235 261.563 138.35 267.953 138.35H391.97C404.806 138.35 410.143 154.775 399.758 162.319L299.426 235.215C294.257 238.971 292.093 245.628 294.068 251.706L332.392 369.653C336.358 381.861 322.386 392.012 312.002 384.467L211.67 311.572C206.5 307.816 199.5 307.816 194.33 311.572L93.9981 384.467C83.6139 392.012 69.6421 381.861 73.6085 369.653L111.932 251.706C113.907 245.628 111.743 238.971 106.574 235.215L6.24163 162.319C-4.14258 154.775 1.1942 138.35 14.0298 138.35H138.047C144.437 138.35 150.1 134.235 152.075 128.158L190.398 10.2105C194.365 -1.99689 211.635 -1.99689 215.602 10.2105Z" fill="#FCF443" stroke="black" stroke-width="1.5"/>
</svg>
