<svg width="706" height="772" viewBox="0 0 706 772" fill="none" xmlns="http://www.w3.org/2000/svg">
<path d="M256.602 325.21L294.925 443.158C296.9 449.235 302.563 453.35 308.953 453.35H432.97C445.806 453.35 451.143 469.775 440.758 477.319L340.426 550.215C335.257 553.971 333.093 560.628 335.068 566.706L373.392 684.653C377.358 696.861 363.386 707.012 353.002 699.467L252.67 626.572C247.5 622.816 240.5 622.816 235.33 626.572L134.998 699.467C124.614 707.012 110.642 696.861 114.608 684.653L152.932 566.706C154.907 560.628 152.743 553.971 147.574 550.215L47.2416 477.319C36.8574 469.775 42.1942 453.35 55.0298 453.35H179.047C185.437 453.35 191.1 449.235 193.075 443.158L231.398 325.21C235.365 313.003 252.635 313.003 256.602 325.21Z" fill="#FCF443" stroke="black" stroke-width="1.5"/>
<path d="M474.602 41.2105L512.925 159.158C514.9 165.235 520.563 169.35 526.953 169.35H650.97C663.806 169.35 669.143 185.775 658.758 193.319L558.426 266.215C553.257 269.971 551.093 276.628 553.068 282.706L591.392 400.653C595.358 412.861 581.386 423.012 571.002 415.467L470.67 342.572C465.5 338.816 458.5 338.816 453.33 342.572L352.998 415.467C342.614 423.012 328.642 412.861 332.608 400.653L370.932 282.706C372.907 276.628 370.743 269.971 365.574 266.215L265.242 193.319C254.857 185.775 260.194 169.35 273.03 169.35H397.047C403.437 169.35 409.1 165.235 411.075 159.158L449.398 41.2105C453.365 29.0031 470.635 29.0031 474.602 41.2105Z" fill="#FCF443" stroke="black" stroke-width="1.5"/>
</svg>
