<svg width="1064" height="1280" viewBox="0 0 1064 1280" fill="none" xmlns="http://www.w3.org/2000/svg">
<g clip-path="url(#clip0)">
<path d="M450.474 1.93108C444.274 4.33108 437.574 10.4311 435.074 15.8311C432.974 20.3311 432.974 21.4311 432.974 82.9311C432.974 151.931 432.674 148.531 439.374 156.231C441.174 158.131 444.674 160.831 447.274 162.131C451.574 164.231 453.574 164.431 472.474 164.931L492.974 165.431L493.274 190.831C493.374 207.631 493.174 216.631 492.474 217.431C491.874 218.131 488.174 219.031 484.174 219.431C380.974 229.031 283.574 267.931 203.274 331.631C196.774 336.731 191.174 340.931 190.674 340.931C189.574 340.931 177.474 328.531 177.474 327.431C177.474 326.831 181.274 322.531 186.074 317.931C190.774 313.231 195.474 307.931 196.574 306.131C199.074 302.131 199.374 293.631 197.174 289.431C194.874 285.031 134.474 225.231 131.174 223.931C126.774 222.331 120.774 222.731 116.674 224.831C111.874 227.331 37.8738 301.531 36.5738 305.231C35.0738 309.131 35.1738 315.431 36.8738 319.231C39.0738 324.231 100.274 384.631 103.974 385.431C105.674 385.831 107.574 386.331 108.274 386.531C108.974 386.731 111.674 386.431 114.174 385.731C117.974 384.831 120.674 382.831 128.974 374.731C134.574 369.331 139.574 364.931 140.174 364.931C141.674 364.931 151.474 375.431 151.474 377.031C151.474 377.931 150.274 379.631 148.874 381.031C139.974 389.231 112.974 421.931 99.3738 440.931C43.1738 519.831 11.2738 608.631 3.07378 708.431C-0.226216 748.431 0.273784 768.531 5.57378 812.931C24.0738 967.931 111.274 1107.33 243.474 1193.43C309.374 1236.33 384.574 1264.03 463.074 1274.43C511.374 1280.73 553.574 1280.73 601.874 1274.43C718.074 1259.13 824.874 1206.43 907.874 1123.33C984.674 1046.63 1035.37 949.931 1054.87 843.431C1060.47 812.431 1065.17 759.831 1064.07 738.931C1061.17 683.831 1054.67 641.931 1042.47 600.031C986.574 407.231 825.374 261.731 627.974 225.831C612.774 223.131 590.374 220.131 578.474 219.331C572.574 218.931 568.074 218.131 567.474 217.431C566.774 216.631 566.574 207.031 566.674 190.831L566.974 165.431L587.474 164.931C606.374 164.431 608.374 164.231 612.674 162.131C617.974 159.531 622.974 154.231 625.074 149.331C626.174 146.631 626.474 134.131 626.474 82.7311C626.474 11.0311 626.874 14.9311 618.274 7.43108C609.374 -0.368918 612.974 -0.0689179 529.374 0.0310821C460.574 0.131082 454.674 0.231082 450.474 1.93108ZM562.974 295.931C676.474 304.331 779.074 351.831 857.474 432.531C928.274 505.331 970.474 594.731 983.174 698.931C985.774 719.731 985.674 777.231 983.174 797.931C969.974 904.131 926.174 995.031 852.874 1068.33C779.574 1141.63 688.774 1185.33 582.474 1198.63C561.674 1201.13 503.274 1201.13 482.474 1198.63C376.174 1185.33 285.374 1141.63 212.074 1068.33C138.774 995.031 94.9738 904.131 81.7738 797.931C79.2738 777.231 79.1738 719.731 81.7738 698.931C89.8738 632.831 108.174 576.931 139.774 521.931C194.974 425.931 286.474 351.531 391.474 317.431C446.674 299.531 507.474 291.931 562.974 295.931Z" fill="black"/>
<path d="M528.474 343.931V366.931H532.474H536.474V343.931V320.931H532.474H528.474V343.931Z" fill="black"/>
<path d="M319.274 377.731C317.674 378.631 316.474 379.931 316.474 380.531C316.474 381.131 321.474 390.231 327.574 400.731L338.674 419.931L341.474 418.431C343.074 417.631 344.574 416.531 344.974 415.931C345.574 415.031 325.674 379.731 323.174 377.231C322.274 376.331 321.374 376.431 319.274 377.731Z" fill="black"/>
<path d="M741.174 378.131C737.574 383.831 720.474 413.831 720.274 414.831C720.074 415.431 721.374 416.831 723.074 417.931L726.274 420.031L728.274 416.731C732.674 409.431 748.574 381.631 748.774 380.831C748.874 380.331 747.574 379.031 745.774 377.831L742.574 375.831L741.174 378.131Z" fill="black"/>
<path d="M163.074 534.031C162.074 535.731 161.674 537.531 162.074 537.931C163.474 539.231 199.474 559.931 200.374 559.931C201.374 559.931 204.474 555.431 204.474 554.131C204.474 553.331 166.574 530.931 165.274 530.931C165.074 530.931 164.074 532.331 163.074 534.031Z" fill="black"/>
<path d="M880.974 541.531C871.074 547.331 862.374 552.431 861.574 552.831C860.474 553.531 860.574 554.131 861.874 556.731C862.774 558.531 863.974 559.931 864.574 559.931C865.774 559.931 900.374 540.231 902.274 538.431C903.474 537.431 903.374 536.631 902.074 534.031C901.174 532.331 900.074 530.931 899.674 530.931C899.274 531.031 890.874 535.731 880.974 541.531Z" fill="black"/>
<path d="M106.674 744.131C105.174 745.631 105.174 749.231 106.674 750.731C107.574 751.631 113.974 751.931 129.174 751.931C149.174 751.931 150.474 751.831 151.474 750.031C152.174 748.731 152.174 747.231 151.474 745.531L150.474 742.931H129.174C113.974 742.931 107.574 743.231 106.674 744.131Z" fill="black"/>
<path d="M913.874 744.331C913.574 745.131 913.474 747.031 913.674 748.631L913.974 751.431L934.474 751.731C945.774 751.831 955.974 751.731 957.274 751.431C958.974 751.031 959.474 750.231 959.474 747.531C959.474 745.331 958.874 743.931 957.874 743.531C956.974 743.231 946.874 742.931 935.374 742.931C918.174 742.931 914.274 743.231 913.874 744.331Z" fill="black"/>
<path d="M180.974 945.531C171.074 951.331 162.574 956.431 162.174 956.931C161.374 957.631 161.974 959.231 164.374 962.831C165.074 963.931 169.274 961.831 184.874 952.831C195.674 946.631 204.474 941.131 204.474 940.631C204.474 939.131 201.274 934.931 200.074 934.931C199.474 935.031 190.874 939.731 180.974 945.531Z" fill="black"/>
<path d="M861.974 938.031C861.074 939.731 860.474 941.231 860.674 941.431C861.474 942.131 899.474 963.931 899.974 963.931C900.874 963.931 903.574 957.831 902.974 957.031C902.274 955.831 865.974 934.931 864.574 934.931C863.974 934.931 862.774 936.331 861.974 938.031Z" fill="black"/>
<path d="M327.974 1093.53C322.074 1103.83 316.974 1112.93 316.774 1113.93C316.274 1115.93 321.974 1118.83 323.374 1117.33C325.674 1114.93 345.374 1079.63 344.874 1078.83C344.574 1078.33 343.074 1077.23 341.474 1076.43L338.674 1074.93L327.974 1093.53Z" fill="black"/>
<path d="M722.674 1077.13L719.374 1079.13L721.274 1082.33C722.274 1084.03 727.274 1092.73 732.474 1101.63C738.274 1111.73 742.474 1117.93 743.374 1117.93C744.274 1117.93 745.974 1117.13 747.174 1116.13L749.374 1114.43L738.374 1095.43C732.274 1084.93 727.074 1076.13 726.674 1075.73C726.274 1075.33 724.474 1075.93 722.674 1077.13Z" fill="black"/>
<path d="M528.474 1150.93V1173.93H532.474H536.474V1150.93V1127.93H532.474H528.474V1150.93Z" fill="black"/>
</g>
<defs>
<clipPath id="clip0">
<rect width="1064" height="1280" fill="white"/>
</clipPath>
</defs>
</svg>
